<svg width="26" height="26" viewBox="0 0 26 26" fill="none" xmlns="http://www.w3.org/2000/svg">
<path d="M13.1727 6.86524C13.8989 5.51951 14.5561 4.2243 15.2968 2.99042C15.9396 1.92215 16.8737 1.05656 17.9909 0.49379C19.9189 -0.494758 22.6784 0.133006 23.6115 1.21536C25.0638 2.8894 26.0623 4.78351 25.997 7.08171C25.9682 9.4636 25.363 11.8036 24.2324 13.9041C22.5803 16.7688 20.892 18.6665 18.2342 21.8233C17.135 23.1472 15.9397 24.3892 14.6578 25.5394C13.9316 26.2033 13.4087 26.1672 12.9295 25.3157C12.1047 23.7908 11.2006 22.3096 10.2208 20.8781C9.00813 19.1608 7.67923 17.5084 6.33944 15.9029C5.57955 15.0995 4.76427 14.3496 3.8995 13.6588C2.08039 12.0039 0.797584 9.84891 0.214169 7.46775C-0.551944 4.5454 0.76243 2.50336 3.75427 1.82148C6.48831 1.19732 8.99724 1.85395 11.1867 3.5821C12.0938 4.29303 12.7406 5.28055 13.0275 6.39261C13.0638 6.53692 13.111 6.67763 13.1727 6.86524ZM13.8336 23.9448C13.888 23.8834 13.9606 23.8004 14.026 23.7139C15.1951 22.2274 16.2989 20.6833 17.5443 19.2654C20.0423 16.4152 22.5404 13.6011 23.931 9.97159C24.6572 8.07026 24.8932 6.2952 23.9601 4.4552C23.4408 3.43057 22.8708 2.44563 21.6072 2.14257C19.9153 1.73489 18.4811 2.38791 17.2103 3.32955C15.5982 4.52014 14.4726 6.16532 13.5395 7.91151C13.2563 8.43826 12.9912 8.63308 12.4284 8.43465C12.4284 8.33363 12.3957 8.23983 12.3885 8.14602C12.3946 7.47563 12.2271 6.81493 11.9022 6.22736C11.5773 5.63979 11.1059 5.14509 10.5331 4.79073C9.61118 4.23281 8.65703 3.72925 7.67561 3.28265C6.49557 2.73065 5.37 2.96516 4.33521 3.68673C3.94307 3.96453 3.56546 4.2712 3.18785 4.57065C1.55033 5.85144 1.08195 8.34085 2.29103 10.0329C2.89738 10.8808 3.74337 11.5626 4.50949 12.2986C5.2756 13.0346 6.18332 13.7418 6.90223 14.5752C7.74822 15.5457 11.931 20.207 13.8336 23.9448ZM22.9434 15.0875L22.7437 14.9288C19.839 18.3201 16.1101 21.0008 14.1204 25.1678C14.4036 25.0307 22.584 15.672 22.9434 15.0875ZM20.0787 0.843751C23.9818 1.78179 25.3543 4.48406 25.0675 8.37692C25.18 8.24343 25.2381 8.20375 25.2417 8.16406C25.4705 6.31324 25.4197 4.52375 24.3776 2.86414C23.9538 2.13201 23.3149 1.54611 22.5465 1.18499C21.7782 0.823875 20.9171 0.704807 20.0787 0.843751ZM4.829 2.81724C2.78846 2.41316 0.769692 4.98194 1.19813 7.24045C1.60479 5.12987 2.92643 3.77332 4.829 2.81724ZM13.3398 24.6122L13.5467 24.5076C12.9077 22.6243 11.7059 21.0729 10.544 19.4963L10.3479 19.6117L13.3398 24.6122ZM4.47681 2.29049C5.50237 2.36922 6.52213 2.51019 7.53037 2.71261C8.49714 3.01136 9.44525 3.36675 10.3697 3.77693C9.00813 2.32657 6.15427 1.59418 4.47681 2.29049ZM20.1658 1.4174C18.8551 1.17567 17.0142 1.99826 16.7201 2.86053L20.1658 1.4174ZM24.4466 10.3396L24.3014 10.2674C23.695 11.5446 23.085 12.8182 22.406 14.2361C23.4209 13.1393 24.125 11.7948 24.4466 10.3396ZM16.6475 1.99104C17.9437 1.20093 19.229 0.439673 20.8157 0.439673C19.1165 0.158261 17.7876 0.850966 16.6475 1.99104ZM6.50283 15.1957L6.71342 14.9973L4.18997 12.6125L4.11735 12.6919L6.50283 15.1957ZM0.631719 6.10759C0.918557 4.9134 1.32885 3.78414 2.34912 2.96877C1.1945 3.47748 0.588148 4.60312 0.631719 6.10759Z" fill="black" fill-opacity="0.4"/>
</svg>
