<svg width="30" height="30" viewBox="0 0 30 30" fill="none" xmlns="http://www.w3.org/2000/svg">
<rect width="30" height="30" rx="15" fill="#151313" fill-opacity="0.05"/>
<path d="M8.82494 14.305C12.0462 12.8938 14.1941 11.9634 15.2689 11.5139C18.3375 10.2305 18.9751 10.0075 19.3907 10.0001C19.4822 9.99853 19.6865 10.0213 19.8189 10.1293C19.9307 10.2205 19.9615 10.3438 19.9762 10.4302C19.9909 10.5167 20.0092 10.7137 19.9947 10.8676C19.8284 12.6246 19.1088 16.8881 18.7428 18.8559C18.5879 19.6885 18.2829 19.9677 17.9876 19.995C17.346 20.0544 16.8587 19.5686 16.2372 19.159C15.2647 18.5179 14.7153 18.1189 13.7713 17.4934C12.6803 16.7704 13.3875 16.3731 14.0093 15.7238C14.172 15.5538 16.9992 12.968 17.0539 12.7334C17.0608 12.7041 17.0671 12.5947 17.0025 12.537C16.9379 12.4792 16.8426 12.499 16.7738 12.5147C16.6762 12.5369 15.1226 13.5695 12.1129 15.6124C11.6719 15.9169 11.2725 16.0652 10.9146 16.0575C10.5201 16.0489 9.76117 15.8332 9.19699 15.6488C8.505 15.4226 7.95502 15.303 8.00291 14.9188C8.02785 14.7188 8.30186 14.5141 8.82494 14.305Z" fill="#151313"/>
</svg>
