<svg width="30" height="30" viewBox="0 0 30 30" fill="none" xmlns="http://www.w3.org/2000/svg">
<rect width="30" height="30" rx="15" fill="#151313" fill-opacity="0.05"/>
<path fill-rule="evenodd" clip-rule="evenodd" d="M10.0564 11H8.52513C8.08752 11 8 11.1981 8 11.417C8 11.8071 8.51883 13.7432 10.4177 16.3032C11.6829 18.0521 13.4663 19 15.0886 19C16.0625 19 16.183 18.7891 16.183 18.4274V17.1056C16.183 16.6845 16.2754 16.6003 16.5835 16.6003C16.811 16.6003 17.1996 16.7095 18.1092 17.5523C19.1475 18.552 19.3184 19 19.9023 19H21.4343C21.8719 19 22.0911 18.7891 21.9643 18.3735C21.8264 17.9598 21.3307 17.3589 20.6725 16.6468C20.3154 16.2413 19.7805 15.804 19.6181 15.5851C19.3905 15.3042 19.4556 15.1795 19.6181 14.9296C19.6181 14.9296 21.484 12.4006 21.6787 11.5416C21.7767 11.2297 21.6787 11 21.2152 11H19.6839C19.2946 11 19.1146 11.1981 19.0173 11.417C19.0173 11.417 18.2387 13.2434 17.1352 14.4297C16.7781 14.7733 16.6157 14.8831 16.421 14.8831C16.3237 14.8831 16.183 14.7733 16.183 14.4614V11.5416C16.183 11.1671 16.0703 11 15.7454 11H13.3382C13.0952 11 12.9489 11.1738 12.9489 11.3389C12.9489 11.6939 13.5006 11.7761 13.5573 12.7752V14.9451C13.5573 15.4214 13.4684 15.5076 13.273 15.5076C12.7542 15.5076 11.4911 13.6725 10.7419 11.5733C10.5949 11.1651 10.4478 11 10.0564 11Z" fill="#151313"/>
</svg>
